<svg version="1.1" id="Layer_1" xmlns="http://www.w3.org/2000/svg" xmlns:xlink="http://www.w3.org/1999/xlink" x="0px" y="0px"
	 width="100%" viewBox="0 0 512 512" enable-background="new 0 0 512 512" xml:space="preserve">
<path fill="#FFFFFF" opacity="1.000000" stroke="none" 
	d="
M1.000000,120.000000 
	C1.000000,80.356468 1.000000,40.712936 1.000000,1.034702 
	C171.543976,1.034702 342.087982,1.034702 513.000000,1.034702 
	C513.000000,40.353462 513.000000,79.708076 512.653687,119.357536 
	C511.203735,115.776787 510.100098,111.901192 508.943512,107.664291 
	C498.736938,79.244179 472.840637,64.880379 447.824646,64.915749 
	C321.432983,65.094482 195.040955,64.986008 68.649055,65.041008 
	C63.531734,65.043236 58.264992,65.014900 53.323257,66.131302 
	C31.155449,71.139267 14.635144,83.278603 5.918334,105.314560 
	C4.142090,110.418274 2.571045,115.209137 1.000000,120.000000 
z"/>
<path fill="#FFFFFF" opacity="1.000000" stroke="none" 
	d="
M513.000000,394.000000 
	C513.000000,433.643463 513.000000,473.286957 513.000000,512.965210 
	C342.456268,512.965210 171.912537,512.965210 1.000000,512.965210 
	C1.000000,473.979889 1.000000,434.958588 1.343248,395.608765 
	C2.479608,397.855316 3.272721,400.430420 4.040570,403.363403 
	C4.148813,404.170959 4.282320,404.620728 4.433742,405.262268 
	C4.575837,405.692841 4.762168,405.863892 5.009186,406.344055 
	C14.874641,432.872070 38.091179,448.996002 65.899986,448.996429 
	C192.891479,448.998444 319.882965,449.007690 446.874420,448.954620 
	C451.331329,448.952759 455.886017,448.795593 460.228149,447.900513 
	C481.931732,443.426636 498.001556,431.638580 507.251099,410.729248 
	C509.347168,404.993469 511.173584,399.496735 513.000000,394.000000 
z"/>
<path fill="#0BB5B8" opacity="1.000000" stroke="none" 
	d="
M1.000000,348.000000 
	C1.000000,325.645782 1.000000,303.291534 1.468657,280.468506 
	C12.234647,279.665192 22.531979,279.330658 32.901466,279.460266 
	C32.926464,301.615295 32.879307,323.306213 32.473225,345.049225 
	C28.802465,346.067535 25.529236,347.663239 22.170773,347.869202 
	C15.137630,348.300537 8.059598,348.000000 1.000000,348.000000 
z"/>
<path fill="#0BAEB9" opacity="1.000000" stroke="none" 
	d="
M513.000000,233.000000 
	C513.000000,253.687561 513.000000,274.375122 512.531372,295.531738 
	C501.763916,296.000336 491.465118,295.999878 481.097290,295.535187 
	C481.074066,274.380219 481.119904,253.689468 481.624023,232.999481 
	C492.388184,233.000137 502.694092,233.000061 513.000000,233.000000 
z"/>
<path fill="#0AA2BC" opacity="1.000000" stroke="none" 
	d="
M513.000000,232.531342 
	C502.694092,233.000061 492.388184,233.000137 481.555115,232.535278 
	C481.074097,211.378906 481.120209,190.687469 481.624542,169.997284 
	C492.388519,169.999023 502.694244,169.999512 513.000000,170.000000 
	C513.000000,190.687561 513.000000,211.375122 513.000000,232.531342 
z"/>
<path fill="#099DBD" opacity="1.000000" stroke="none" 
	d="
M1.000000,219.000000 
	C1.000000,198.312439 1.000000,177.624878 1.468657,156.468658 
	C12.235628,155.999313 22.533943,155.998611 32.904068,156.461884 
	C32.927307,177.282547 32.878742,197.639236 32.426670,218.060028 
	C30.091013,218.415710 28.161417,218.937500 26.226271,218.958954 
	C17.818396,219.052185 9.408904,218.999603 1.000000,219.000000 
z"/>
<path fill="#0AA8BA" opacity="1.000000" stroke="none" 
	d="
M1.000000,219.468658 
	C9.408904,218.999603 17.818396,219.052185 26.226271,218.958954 
	C28.161417,218.937500 30.091013,218.415710 32.498795,218.524170 
	C32.926056,238.948166 32.877682,258.972137 32.829311,278.996124 
	C22.531979,279.330658 12.234647,279.665192 1.468657,279.999878 
	C1.000000,259.979095 1.000000,239.958206 1.000000,219.468658 
z"/>
<path fill="#0BB9B7" opacity="1.000000" stroke="none" 
	d="
M481.166351,295.999420 
	C491.465118,295.999878 501.763916,296.000336 512.531372,296.000366 
	C513.000000,315.687561 513.000000,335.375122 512.531372,355.531494 
	C501.764191,355.999939 491.465729,355.999603 481.098083,355.535034 
	C481.074768,335.380371 481.120575,315.689880 481.166351,295.999420 
z"/>
<path fill="#0995BE" opacity="1.000000" stroke="none" 
	d="
M513.000000,169.531342 
	C502.694244,169.999512 492.388519,169.999023 481.555847,169.533340 
	C481.019592,157.578720 480.845917,146.086304 481.055939,134.600891 
	C481.208221,126.271797 479.823975,118.423737 476.088135,111.124985 
	C485.016144,111.049629 493.462006,111.238663 501.882843,110.864006 
	C504.291382,110.756836 506.627258,109.016861 508.996460,108.025589 
	C510.100098,111.901192 511.203735,115.776787 512.653687,119.826195 
	C513.000000,136.354233 513.000000,152.708450 513.000000,169.531342 
z"/>
<path fill="#0CBFB5" opacity="1.000000" stroke="none" 
	d="
M1.000000,348.468658 
	C8.059598,348.000000 15.137630,348.300537 22.170773,347.869202 
	C25.529236,347.663239 28.802465,346.067535 32.544365,345.513428 
	C32.981201,357.500458 33.177956,369.079498 32.927361,380.648865 
	C32.762665,388.252563 34.118347,395.357178 37.379791,402.077393 
	C35.051933,402.425385 33.126839,402.940887 31.196810,402.960052 
	C22.153894,403.050049 13.109618,403.003418 4.065831,403.005554 
	C3.272721,400.430420 2.479608,397.855316 1.343248,395.140076 
	C1.000000,379.645782 1.000000,364.291534 1.000000,348.468658 
z"/>
<path fill="#0CC3B5" opacity="1.000000" stroke="none" 
	d="
M481.167236,355.999237 
	C491.465729,355.999603 501.764191,355.999939 512.531372,356.000153 
	C513.000000,368.354218 513.000000,380.708466 513.000000,393.531342 
	C511.173584,399.496735 509.347168,404.993469 506.955017,410.437408 
	C493.934479,410.258728 481.479645,410.132812 469.177979,409.712158 
	C477.536499,402.506012 480.907349,393.455688 480.995667,382.970581 
	C481.071381,373.980286 481.111420,364.989685 481.167236,355.999237 
z"/>
<path fill="#0995BE" opacity="1.000000" stroke="none" 
	d="
M32.832260,155.997910 
	C22.533943,155.998611 12.235628,155.999313 1.468657,156.000000 
	C1.000000,144.312439 1.000000,132.624878 1.000000,120.468658 
	C2.571045,115.209137 4.142090,110.418274 6.324751,105.373589 
	C9.030247,105.413269 11.120874,105.931511 13.218560,105.961861 
	C22.927883,106.102310 32.639164,106.107231 42.208199,106.476372 
	C35.340153,113.927025 32.841148,122.534431 32.965763,132.168152 
	C33.068489,140.109497 32.887512,148.054520 32.832260,155.997910 
z"/>
<path fill="#088CC0" opacity="1.000000" stroke="none" 
	d="
M42.349747,106.160706 
	C32.639164,106.107231 22.927883,106.102310 13.218560,105.961861 
	C11.120874,105.931511 9.030247,105.413269 6.529951,105.060745 
	C14.635144,83.278603 31.155449,71.139267 53.323257,66.131302 
	C58.264992,65.014900 63.531734,65.043236 68.649055,65.041008 
	C195.040955,64.986008 321.432983,65.094482 447.824646,64.915749 
	C472.840637,64.880379 498.736938,79.244179 508.943512,107.664284 
	C506.627258,109.016861 504.291382,110.756836 501.882843,110.864006 
	C493.462006,111.238663 485.016144,111.049629 475.836548,110.924103 
	C467.761627,100.871803 457.721069,96.962776 445.646301,96.967651 
	C320.528687,97.018204 195.411041,97.032326 70.293503,96.933746 
	C60.489571,96.926025 51.534355,98.819206 43.601097,105.054611 
	C43.303158,105.250969 43.175022,105.403564 42.948006,105.791161 
	C42.809464,105.992859 42.349747,106.160698 42.349747,106.160706 
z"/>
<path fill="#0DCBB3" opacity="1.000000" stroke="none" 
	d="
M469.024811,410.006897 
	C481.479645,410.132812 493.934479,410.258728 506.685394,410.676483 
	C498.001556,431.638580 481.931732,443.426636 460.228149,447.900513 
	C455.886017,448.795593 451.331329,448.952759 446.874420,448.954620 
	C319.882965,449.007690 192.891479,448.998444 65.899986,448.996429 
	C38.091179,448.996002 14.874641,432.872070 4.946960,406.171875 
	C4.777607,405.397705 4.620817,405.213562 4.415826,405.070465 
	C4.282320,404.620728 4.148813,404.170959 4.040567,403.363403 
	C13.109618,403.003418 22.153894,403.050049 31.196810,402.960052 
	C33.126839,402.940887 35.051933,402.425385 37.590309,402.346863 
	C45.785500,412.950256 56.183491,417.057434 68.845009,417.049225 
	C194.107071,416.967804 319.369202,416.974335 444.631256,417.054382 
	C453.551605,417.060059 461.709747,415.184723 469.024811,410.006897 
z"/>
<path fill="#0CBFB5" opacity="1.000000" stroke="none" 
	d="
M4.433742,405.262268 
	C4.620817,405.213562 4.777607,405.397705 4.948424,405.795105 
	C4.762168,405.863892 4.575837,405.692841 4.433742,405.262268 
z"/>
<path fill="#FFFFFF" opacity="1.000000" stroke="none" 
	d="
M469.177979,409.712158 
	C461.709747,415.184723 453.551605,417.060059 444.631256,417.054382 
	C319.369202,416.974335 194.107071,416.967804 68.845009,417.049225 
	C56.183491,417.057434 45.785500,412.950256 37.990791,402.285706 
	C34.118347,395.357178 32.762665,388.252563 32.927361,380.648865 
	C33.177956,369.079498 32.981201,357.500458 32.903290,345.461304 
	C32.879307,323.306213 32.926464,301.615295 32.901466,279.460266 
	C32.877682,258.972137 32.926056,238.948166 32.902306,218.460052 
	C32.878742,197.639236 32.927307,177.282547 32.904068,156.461884 
	C32.887512,148.054520 33.068489,140.109497 32.965763,132.168152 
	C32.841148,122.534431 35.340153,113.927025 42.208199,106.476364 
	C42.349747,106.160698 42.809464,105.992859 43.112556,105.765755 
	C43.628304,105.412125 43.733501,105.225090 43.731243,104.977547 
	C51.534355,98.819206 60.489571,96.926025 70.293503,96.933746 
	C195.411041,97.032326 320.528687,97.018204 445.646301,96.967651 
	C457.721069,96.962776 467.761627,100.871803 475.344940,110.974342 
	C479.823975,118.423737 481.208221,126.271797 481.055939,134.600891 
	C480.845917,146.086304 481.019592,157.578720 481.097626,169.532104 
	C481.120209,190.687469 481.074097,211.378906 481.096863,232.534531 
	C481.119904,253.689468 481.074066,274.380219 481.097290,295.535187 
	C481.120575,315.689880 481.074768,335.380371 481.098083,355.535034 
	C481.111420,364.989685 481.071381,373.980286 480.995667,382.970581 
	C480.907349,393.455688 477.536499,402.506012 469.177979,409.712158 
M464.972534,210.070404 
	C464.926300,201.046249 464.880066,192.022079 464.973511,182.070221 
	C464.926575,172.046051 464.879639,162.021896 464.972809,151.070114 
	C464.981659,144.742661 464.998871,138.415192 464.997589,132.087738 
	C464.994934,119.071312 458.891541,113.001350 445.801422,113.001198 
	C319.916199,112.999710 194.031006,113.000160 68.145790,113.002129 
	C66.647430,113.002151 65.141418,112.936783 63.651989,113.059692 
	C55.823963,113.705650 49.376854,120.182762 49.075260,128.025711 
	C48.870872,133.340820 49.120487,138.673386 49.024250,144.926102 
	C49.071957,152.616943 49.119659,160.307770 49.024975,168.926514 
	C49.072456,176.283981 49.119934,183.641464 49.024635,191.926620 
	C49.072693,201.950867 49.120750,211.975128 49.026299,222.927032 
	C49.073578,233.617661 49.120857,244.308304 49.025742,255.926880 
	C49.073673,266.950623 49.121605,277.974335 49.027279,289.926239 
	C49.074364,299.617432 49.121449,309.308594 49.027058,319.927551 
	C49.073902,330.284729 49.120747,340.641876 49.026119,351.927094 
	C49.073624,360.618042 49.121128,369.308960 49.028309,378.906982 
	C49.019356,379.739716 49.088848,380.581879 48.989704,381.403748 
	C47.484211,393.883484 56.532280,401.232788 68.325493,401.202026 
	C194.078842,400.873962 319.833344,400.998474 445.587555,400.998474 
	C446.920044,400.998505 448.256195,401.060913 449.584381,400.984863 
	C455.570892,400.642059 463.200226,394.689087 463.975922,389.216766 
	C464.640076,384.531036 464.574005,379.741791 464.970093,374.070312 
	C464.924316,360.046356 464.878540,346.022430 464.970978,331.070312 
	C464.925110,309.379456 464.879272,287.688629 464.970917,265.069641 
	C464.924835,247.045792 464.878723,229.021927 464.972534,210.070404 
z"/>
<path fill="#0995BE" opacity="1.000000" stroke="none" 
	d="
M43.601097,105.054611 
	C43.733501,105.225090 43.628304,105.412125 43.251099,105.564056 
	C43.175022,105.403564 43.303158,105.250969 43.601097,105.054611 
z"/>
<path fill="#0995BE" opacity="1.000000" stroke="none" 
	d="
M49.167049,143.998154 
	C49.120487,138.673386 48.870872,133.340820 49.075260,128.025711 
	C49.376854,120.182762 55.823963,113.705650 63.651989,113.059692 
	C65.141418,112.936783 66.647430,113.002151 68.145790,113.002129 
	C194.031006,113.000160 319.916199,112.999710 445.801422,113.001198 
	C458.891541,113.001350 464.994934,119.071312 464.997589,132.087738 
	C464.998871,138.415192 464.981659,144.742661 464.445190,151.534653 
	C407.100372,151.999451 350.283234,151.999725 293.466064,152.000122 
	C292.299744,152.000122 291.131409,152.045853 289.967468,151.993698 
	C287.287964,151.873566 285.846161,152.992462 285.687683,155.717773 
	C268.575684,144.875397 251.805588,134.088623 234.985382,123.380554 
	C230.114304,120.279518 224.891190,118.339043 218.936615,119.585770 
	C207.036728,122.077293 200.708008,129.644867 198.123291,144.002441 
	C148.176971,144.000717 98.672012,143.999435 49.167049,143.998154 
z"/>
<path fill="#0CC3B5" opacity="1.000000" stroke="none" 
	d="
M464.830902,374.998322 
	C464.574005,379.741791 464.640076,384.531036 463.975922,389.216766 
	C463.200226,394.689087 455.570892,400.642059 449.584381,400.984863 
	C448.256195,401.060913 446.920044,400.998505 445.587555,400.998474 
	C319.833344,400.998474 194.078842,400.873962 68.325493,401.202026 
	C56.532280,401.232788 47.484211,393.883484 48.989704,381.403748 
	C49.088848,380.581879 49.019356,379.739716 49.555862,378.453491 
	C103.791634,377.976318 157.499847,377.952606 211.513870,378.069489 
	C216.828613,385.764160 224.924240,388.566986 232.920135,388.632111 
	C241.997543,388.706116 251.196884,386.702484 259.430237,381.826172 
	C264.410492,378.876495 269.804901,376.626099 275.308075,374.343079 
	C280.694885,374.416412 285.786652,374.031158 290.878784,374.027161 
	C346.417969,373.983765 401.957214,373.987305 457.496399,374.042267 
	C459.941528,374.044708 462.386078,374.665527 464.830902,374.998322 
z"/>
<path fill="#0CBDB5" opacity="1.000000" stroke="none" 
	d="
M464.900513,374.534302 
	C462.386078,374.665527 459.941528,374.044708 457.496399,374.042267 
	C401.957214,373.987305 346.417969,373.983765 290.878784,374.027161 
	C285.786652,374.031158 280.694885,374.416412 275.524292,374.072662 
	C280.483978,370.973755 285.514648,368.411438 290.562012,365.882416 
	C314.005005,354.136475 337.452667,342.399780 360.964600,331.036804 
	C363.441833,331.609253 365.852966,331.971954 368.264496,331.974731 
	C400.453888,332.012054 432.643341,331.998993 464.832764,331.998474 
	C464.878540,346.022430 464.924316,360.046356 464.900513,374.534302 
z"/>
<path fill="#0AA8BA" opacity="1.000000" stroke="none" 
	d="
M49.168140,254.998932 
	C49.120857,244.308304 49.073578,233.617661 49.554996,222.463440 
	C99.570000,222.000854 149.056305,222.001862 198.649017,222.460907 
	C198.684418,233.946854 198.613419,244.974747 198.102417,256.002319 
	C150.774994,256.001343 103.887520,256.016693 57.000149,255.957275 
	C54.389076,255.953979 51.778793,255.332626 49.168140,254.998932 
z"/>
<path fill="#099CBD" opacity="1.000000" stroke="none" 
	d="
M286.010468,155.803360 
	C285.846161,152.992462 287.287964,151.873566 289.967468,151.993698 
	C291.131409,152.045853 292.299744,152.000122 293.466064,152.000122 
	C350.283234,151.999725 407.100372,151.999451 464.375122,151.998459 
	C464.879639,162.021896 464.926575,172.046051 464.446014,182.534760 
	C445.118683,182.999527 426.318817,182.999863 407.518982,182.999969 
	C384.559875,183.000092 361.600769,182.990555 338.641663,183.014114 
	C336.237946,183.016586 333.354065,182.339111 332.644165,185.983398 
	C316.885864,175.834946 301.448151,165.819153 286.010468,155.803360 
z"/>
<path fill="#0BAEB9" opacity="1.000000" stroke="none" 
	d="
M49.096939,255.462906 
	C51.778793,255.332626 54.389076,255.953979 57.000149,255.957275 
	C103.887520,256.016693 150.774994,256.001343 198.208252,256.460480 
	C198.683838,267.613525 198.613617,278.308105 198.103363,289.002319 
	C148.165405,289.000671 98.667473,288.999359 49.169540,288.998077 
	C49.121605,277.974335 49.073673,266.950623 49.096939,255.462906 
z"/>
<path fill="#0BB9B7" opacity="1.000000" stroke="none" 
	d="
M49.167591,350.999054 
	C49.120747,340.641876 49.073902,330.284729 49.509705,319.475891 
	C52.773193,319.349457 55.553680,319.954773 58.334930,319.958282 
	C105.069519,320.017426 151.804214,320.001495 198.645416,320.460205 
	C198.833527,331.612091 198.915100,342.306061 198.573776,352.990234 
	C195.201233,352.653625 192.251999,352.046173 189.301926,352.042084 
	C145.203491,351.981201 101.104904,352.017029 57.006458,351.957214 
	C54.393078,351.953674 51.780529,351.332703 49.167591,350.999054 
z"/>
<path fill="#0AA2BC" opacity="1.000000" stroke="none" 
	d="
M198.542603,222.002869 
	C149.056305,222.001862 99.570000,222.000854 49.626251,221.999603 
	C49.120750,211.975128 49.072693,201.950867 49.553574,191.463120 
	C99.570038,191.000488 149.057556,191.001358 198.651367,191.460327 
	C198.685989,201.946594 198.614288,211.974731 198.542603,222.002869 
z"/>
<path fill="#0BB4B8" opacity="1.000000" stroke="none" 
	d="
M198.538879,320.002228 
	C151.804214,320.001495 105.069519,320.017426 58.334930,319.958282 
	C55.553680,319.954773 52.773193,319.349457 49.580444,319.011993 
	C49.121449,309.308594 49.074364,299.617432 49.098412,289.462158 
	C98.667473,288.999359 148.165405,289.000671 198.208862,289.460449 
	C198.682556,299.946716 198.610718,309.974457 198.538879,320.002228 
z"/>
<path fill="#0CBFB5" opacity="1.000000" stroke="none" 
	d="
M49.096855,351.463074 
	C51.780529,351.332703 54.393078,351.953674 57.006458,351.957214 
	C101.104904,352.017029 145.203491,351.981201 189.301926,352.042084 
	C192.251999,352.046173 195.201233,352.653625 198.747589,353.311401 
	C200.635132,357.105438 201.925964,360.568512 203.248611,364.377563 
	C205.922989,369.125305 208.565536,373.527069 211.208069,377.928894 
	C157.499847,377.952606 103.791634,377.976318 49.626026,377.999969 
	C49.121128,369.308960 49.073624,360.618042 49.096855,351.463074 
z"/>
<path fill="#099ABE" opacity="1.000000" stroke="none" 
	d="
M49.095650,144.462128 
	C98.672012,143.999435 148.176971,144.000717 198.226044,144.461273 
	C198.696075,152.614166 198.622009,160.307816 198.107635,168.001221 
	C148.167313,168.000198 98.667343,167.999405 49.167362,167.998611 
	C49.119659,160.307770 49.071957,152.616943 49.095650,144.462128 
z"/>
<path fill="#0BB3B7" opacity="1.000000" stroke="none" 
	d="
M464.901855,331.534393 
	C432.643341,331.998993 400.453888,332.012054 368.264496,331.974731 
	C365.852966,331.971954 363.441833,331.609253 361.189819,330.790741 
	C362.085876,329.782288 362.820496,329.392731 363.559784,329.012299 
	C381.753845,319.650177 400.256531,310.832336 418.040283,300.746765 
	C431.058441,293.363861 439.119812,282.003784 438.715576,266.004761 
	C447.722961,266.001984 456.278168,265.999878 464.833405,265.997772 
	C464.879272,287.688629 464.925110,309.379456 464.901855,331.534393 
z"/>
<path fill="#099DBD" opacity="1.000000" stroke="none" 
	d="
M49.096169,168.462555 
	C98.667343,167.999405 148.167313,168.000198 198.214325,168.459290 
	C198.689255,176.279129 198.617157,183.640671 198.545074,191.002213 
	C149.057556,191.001358 99.570038,191.000488 49.624966,190.999268 
	C49.119934,183.641464 49.072456,176.283981 49.096169,168.462555 
z"/>
<path fill="#0AA0BC" opacity="1.000000" stroke="none" 
	d="
M332.964813,186.116043 
	C333.354065,182.339111 336.237946,183.016586 338.641663,183.014114 
	C361.600769,182.990555 384.559875,183.000092 407.518982,182.999969 
	C426.318817,182.999863 445.118683,182.999527 464.376160,182.998596 
	C464.880066,192.022079 464.926300,201.046249 464.445038,210.534882 
	C437.204010,210.999573 410.490417,210.986420 383.776947,211.020401 
	C381.065399,211.023849 377.882812,210.306625 376.611115,214.075089 
	C361.849030,204.663940 347.406921,195.389999 332.964813,186.116043 
z"/>
<path fill="#0AA6BA" opacity="1.000000" stroke="none" 
	d="
M376.931091,214.212280 
	C377.882812,210.306625 381.065399,211.023849 383.776947,211.020401 
	C410.490417,210.986420 437.204010,210.999573 464.375092,210.998718 
	C464.878723,229.021927 464.924835,247.045792 464.902161,265.533691 
	C456.278168,265.999878 447.722961,266.001984 438.605347,265.621460 
	C436.406097,255.217514 431.515442,246.799301 423.277405,241.252701 
	C414.658356,235.449554 405.118744,231.013641 395.756744,225.717682 
	C389.331665,221.707596 383.131378,217.959946 376.931091,214.212280 
z"/>
<path fill="#10192D" opacity="1.000000" stroke="none" 
	d="
M376.611115,214.075089 
	C383.131378,217.959946 389.331665,221.707596 395.791260,226.069107 
	C396.251038,227.134827 396.347961,227.683380 396.666809,228.024628 
	C408.567444,240.761383 405.257538,260.031830 389.629486,269.735443 
	C365.503693,284.715424 341.698853,300.213257 317.789459,315.540741 
	C289.824554,333.468048 261.967285,351.564941 233.893158,369.319244 
	C227.285141,373.498230 219.859329,374.451508 212.628098,370.256104 
	C209.380402,368.371887 206.347275,366.117828 203.216782,364.031586 
	C201.925964,360.568512 200.635132,357.105438 199.170502,353.321167 
	C198.915100,342.306061 198.833527,331.612091 198.645416,320.460205 
	C198.610718,309.974457 198.682556,299.946716 198.648895,289.460815 
	C198.613617,278.308105 198.683838,267.613525 198.648224,256.460815 
	C198.613419,244.974747 198.684418,233.946854 198.649002,222.460907 
	C198.614288,211.974731 198.685989,201.946594 198.651367,191.460327 
	C198.617157,183.640671 198.689255,176.279129 198.654648,168.459518 
	C198.622009,160.307816 198.696075,152.614166 198.667404,144.461700 
	C200.708008,129.644867 207.036728,122.077293 218.936615,119.585770 
	C224.891190,118.339043 230.114304,120.279518 234.985382,123.380554 
	C251.805588,134.088623 268.575684,144.875397 285.687683,155.717773 
	C301.448151,165.819153 316.885864,175.834946 332.644165,185.983398 
	C347.406921,195.389999 361.849030,204.663940 376.611115,214.075089 
M309.793213,306.299988 
	C334.307343,290.581573 358.834991,274.884155 383.329681,259.135498 
	C394.741364,251.798462 394.722961,240.207184 383.270172,232.845047 
	C353.174347,213.498795 323.044006,194.206161 292.927521,174.892029 
	C271.496521,161.148026 250.109879,147.334076 228.610962,133.697144 
	C221.014481,128.878632 212.310516,133.134186 211.087952,142.005112 
	C210.884689,143.479889 210.965073,144.997879 210.964966,146.495911 
	C210.959930,212.783386 210.960007,279.070862 210.964233,345.358337 
	C210.964325,346.856689 210.885483,348.371765 211.070557,349.850616 
	C212.182648,358.736938 220.796509,362.968231 228.501251,358.439941 
	C229.935654,357.596924 231.330231,356.685089 232.731125,355.786224 
	C258.221344,339.430664 283.709808,323.072327 309.793213,306.299988 
z"/>
<path fill="#000101" opacity="1.000000" stroke="none" 
	d="
M203.248611,364.377563 
	C206.347275,366.117828 209.380402,368.371887 212.628098,370.256104 
	C219.859329,374.451508 227.285141,373.498230 233.893158,369.319244 
	C261.967285,351.564941 289.824554,333.468048 317.789459,315.540741 
	C341.698853,300.213257 365.503693,284.715424 389.629486,269.735443 
	C405.257538,260.031830 408.567444,240.761383 396.666809,228.024628 
	C396.347961,227.683380 396.251038,227.134827 396.016052,226.331543 
	C405.118744,231.013641 414.658356,235.449554 423.277405,241.252701 
	C431.515442,246.799301 436.406097,255.217514 438.153229,265.622162 
	C439.119812,282.003784 431.058441,293.363861 418.040283,300.746765 
	C400.256531,310.832336 381.753845,319.650177 363.559784,329.012299 
	C362.820496,329.392731 362.085876,329.782288 361.123901,330.413666 
	C337.452667,342.399780 314.005005,354.136475 290.562012,365.882416 
	C285.514648,368.411438 280.483978,370.973755 275.229431,373.791138 
	C269.804901,376.626099 264.410492,378.876495 259.430237,381.826172 
	C251.196884,386.702484 241.997543,388.706116 232.920135,388.632111 
	C224.924240,388.566986 216.828613,385.764160 211.513870,378.069458 
	C208.565536,373.527069 205.922989,369.125305 203.248611,364.377563 
z"/>
<path fill="#60A5F9" opacity="1.000000" stroke="none" 
	d="
M309.495911,306.507263 
	C283.709808,323.072327 258.221344,339.430664 232.731125,355.786224 
	C231.330231,356.685089 229.935654,357.596924 228.501251,358.439941 
	C220.796509,362.968231 212.182648,358.736938 211.070557,349.850616 
	C210.885483,348.371765 210.964325,346.856689 210.964233,345.358337 
	C210.960007,279.070862 210.959930,212.783386 210.964966,146.495911 
	C210.965073,144.997879 210.884689,143.479889 211.087952,142.005112 
	C212.310516,133.134186 221.014481,128.878632 228.610962,133.697144 
	C250.109879,147.334076 271.496521,161.148026 292.927521,174.892029 
	C323.044006,194.206161 353.174347,213.498795 383.270172,232.845047 
	C394.722961,240.207184 394.741364,251.798462 383.329681,259.135498 
	C358.834991,274.884155 334.307343,290.581573 309.495911,306.507263 
z"/>
</svg>